<svg width="50" height="51" fill="none" xmlns="http://www.w3.org/2000/svg"><path d="M24.999 50.5c-6.908 0-13.176-2.774-17.663-7.325C2.778 38.693 0 32.435 0 25.535a24.928 24.928 0 0 1 7.336-17.71C11.822 3.274 18.09.5 24.999.5c6.91 0 13.176 2.774 17.734 7.325A25.161 25.161 0 0 1 50 25.535c0 6.9-2.779 13.158-7.267 17.64A24.997 24.997 0 0 1 25 50.5ZM22.22 21.766h-3.704v4.623h3.704v11.238h4.63V26.389h4.63v-4.623h-4.63v-2.347c0-.783.427-1.423.924-1.423h3.706v-4.552h-3.706c-3.062 0-5.554 2.703-5.554 6.046v2.276Z" fill="#fff"/></svg>