<svg width="50" height="51" fill="none" xmlns="http://www.w3.org/2000/svg"><path d="M25 .5C11.179.5 0 11.679 0 25.5s11.179 25 25 25c13.82 0 25-11.179 25-25 .1-13.821-11.18-25-25-25Zm13.313 30.894c0 2.338-.814 4.37-2.236 5.793-1.423 1.423-3.456 2.134-5.691 2.134H19.309c-2.236 0-4.269-.711-5.691-2.134-1.525-1.423-2.236-3.455-2.236-5.793V20.215c0-4.674 3.15-7.926 7.927-7.926h11.178c2.338 0 4.269.813 5.691 2.235 1.423 1.423 2.135 3.354 2.135 5.691v11.18Z" fill="#fff"/><path d="M24.796 30.175a4.472 4.472 0 1 0 0-8.943 4.472 4.472 0 0 0 0 8.943Z" fill="#fff"/><path d="M30.386 14.727H19.207c-1.626 0-3.049.509-3.963 1.423-.915.915-1.423 2.338-1.423 3.964v11.179c0 1.626.508 3.048 1.524 4.065 1.016.914 2.338 1.422 3.964 1.422h11.077c1.626 0 3.049-.508 3.963-1.422 1.016-.915 1.525-2.338 1.525-3.964V20.215c0-1.626-.509-2.947-1.423-3.963-1.017-1.016-2.338-1.524-4.065-1.524Zm-5.59 17.887c-3.861 0-6.91-3.15-6.91-6.91 0-3.863 3.15-6.911 6.91-6.911 3.76 0 7.012 3.048 7.012 6.91s-3.15 6.91-7.012 6.91Zm7.216-12.5a1.605 1.605 0 0 1-1.626-1.626c0-.915.711-1.626 1.626-1.626.914 0 1.626.711 1.626 1.626 0 .914-.712 1.626-1.626 1.626Z" fill="#fff"/></svg>