<svg width="70" height="70" fill="none" xmlns="http://www.w3.org/2000/svg"><circle cx="35" cy="35" r="35" fill="#876191"/><path d="M18.28 33.82h6.96v2.14h-6.96v-2.14Zm.2 6h7.9V42h-10.5V28H26.1v2.18h-7.62v9.64Zm16.618-8.62c.854 0 1.614.167 2.28.5.68.333 1.214.847 1.6 1.54.387.68.58 1.56.58 2.64V42h-2.5v-5.8c0-.947-.226-1.653-.68-2.12-.44-.467-1.06-.7-1.86-.7-.586 0-1.106.12-1.56.36-.453.24-.806.6-1.06 1.08-.24.467-.36 1.06-.36 1.78V42h-2.5V31.32h2.38v2.88l-.42-.88c.374-.68.914-1.2 1.62-1.56.72-.373 1.547-.56 2.48-.56ZM47.59 46.02c-.986 0-1.953-.133-2.9-.4-.933-.253-1.7-.627-2.3-1.12l1.12-1.88c.467.387 1.054.693 1.76.92.72.24 1.447.36 2.18.36 1.174 0 2.034-.273 2.58-.82.547-.533.82-1.34.82-2.42v-1.9l.2-2.42-.08-2.42v-2.6h2.38v9.06c0 1.933-.493 3.353-1.48 4.26-.986.92-2.413 1.38-4.28 1.38Zm-.32-4.5c-1.013 0-1.933-.213-2.76-.64a5.094 5.094 0 0 1-1.94-1.82c-.466-.773-.7-1.68-.7-2.72 0-1.027.234-1.927.7-2.7a4.945 4.945 0 0 1 1.94-1.8c.827-.427 1.747-.64 2.76-.64.907 0 1.72.18 2.44.54.72.36 1.294.92 1.72 1.68.44.76.66 1.733.66 2.92 0 1.187-.22 2.167-.66 2.94-.426.76-1 1.327-1.72 1.7-.72.36-1.533.54-2.44.54Zm.38-2.12c.627 0 1.187-.127 1.68-.38a2.876 2.876 0 0 0 1.14-1.08c.28-.467.42-1 .42-1.6 0-.6-.14-1.127-.42-1.58a2.582 2.582 0 0 0-1.14-1.06c-.493-.253-1.053-.38-1.68-.38-.626 0-1.193.127-1.7.38-.493.24-.88.593-1.16 1.06-.266.453-.4.98-.4 1.58 0 .6.134 1.133.4 1.6.28.453.667.813 1.16 1.08.507.253 1.074.38 1.7.38Z" fill="#fff"/></svg>