<svg width="69" height="69" fill="none" xmlns="http://www.w3.org/2000/svg"><path d="M34.498 69c-9.533 0-18.183-3.828-24.375-10.109C3.833 52.707 0 44.071 0 34.55c0-9.52 3.833-18.157 10.123-24.44C16.315 3.828 24.965 0 34.498 0a34.49 34.49 0 0 1 24.474 10.109C65.165 16.39 69 25.029 69 34.549c0 9.522-3.835 18.158-10.028 24.342A34.496 34.496 0 0 1 34.498 69Zm-3.833-39.654h-5.112v6.381h5.112v15.508h6.39V35.727h6.388v-6.38h-6.388v-3.24c0-1.08.588-1.963 1.275-1.963h5.113v-6.281H38.33c-4.227 0-7.665 3.73-7.665 8.343v3.14Z" fill="#876191"/></svg>