<svg width="69" height="69" viewBox="0 0 69 69" fill="none" xmlns="http://www.w3.org/2000/svg">
<path d="M34.4984 69C24.965 69 16.315 65.1721 10.1234 58.8911C3.83333 52.7066 0 44.0705 0 34.5491C0 25.0293 3.83333 16.3916 10.1234 10.1089C16.315 3.82788 24.965 0 34.4984 0C44.0334 0 52.6817 3.82788 58.9718 10.1089C65.1651 16.39 69 25.0293 69 34.5491C69 44.0705 65.1651 52.7066 58.9718 58.8911C52.6801 65.1721 44.0317 69 34.4984 69ZM30.6651 29.3465H25.5534V35.7274H30.6651V51.2353H37.055V35.7274H43.4434V29.3465H37.055V26.1078C37.055 25.0277 37.6434 24.144 38.3301 24.144H43.4434V17.8629H38.3301C34.1034 17.8629 30.6651 21.5926 30.6651 26.206V29.3465Z" fill="#876191"/>
</svg>
