<svg width="69" height="69" fill="none" xmlns="http://www.w3.org/2000/svg"><path d="M34.5 0C15.426 0 0 15.427 0 34.5S15.427 69 34.5 69C53.572 69 69 53.573 69 34.5 69.14 15.427 53.571 0 34.5 0Zm18.37 42.634c0 3.226-1.122 6.03-3.085 7.994-1.964 1.964-4.768 2.945-7.854 2.945H26.646c-3.085 0-5.89-.981-7.854-2.945-2.103-1.963-3.085-4.768-3.085-7.994V27.207c0-6.45 4.348-10.939 10.939-10.939h15.427c3.225 0 5.89 1.122 7.853 3.086 1.963 1.963 2.945 4.628 2.945 7.853v15.427Z" fill="#876191"/><path d="M34.219 40.95a6.17 6.17 0 1 0 0-12.34 6.17 6.17 0 0 0 0 12.34Z" fill="#876191"/><path d="M41.932 19.634H26.506c-2.244 0-4.208.701-5.47 1.964-1.262 1.262-1.963 3.225-1.963 5.47v15.426c0 2.244.701 4.207 2.104 5.61 1.402 1.262 3.225 1.963 5.469 1.963h15.286c2.244 0 4.208-.701 5.47-1.963 1.402-1.262 2.103-3.226 2.103-5.47V27.207c0-2.244-.7-4.067-1.963-5.47-1.402-1.402-3.226-2.103-5.61-2.103ZM34.22 44.317c-5.33 0-9.536-4.348-9.536-9.536 0-5.33 4.347-9.537 9.536-9.537 5.189 0 9.677 4.207 9.677 9.537 0 5.329-4.348 9.536-9.677 9.536Zm9.957-17.25a2.215 2.215 0 0 1-2.244-2.244c0-1.262.982-2.244 2.244-2.244 1.262 0 2.244.982 2.244 2.244a2.215 2.215 0 0 1-2.244 2.244Z" fill="#876191"/></svg>