<svg width="69" height="69" fill="none" xmlns="http://www.w3.org/2000/svg"><circle cx="34.5" cy="34.5" r="34.5" fill="#876191"/><path d="M25.243 32.425a25.936 25.936 0 0 0 11.35 11.34l3.788-3.797a1.728 1.728 0 0 1 1.748-.422c1.93.637 4.005.982 6.149.982.956 0 1.722.766 1.722 1.722v6.028c0 .956-.766 1.722-1.722 1.722C32.106 50 19 36.894 19 20.722c0-.956.775-1.722 1.722-1.722h6.028c.956 0 1.722.766 1.722 1.722 0 2.144.345 4.22.982 6.149.19.594.052 1.274-.422 1.748l-3.789 3.806Z" fill="#fff"/></svg>