<svg width="709" height="128" fill="none" xmlns="http://www.w3.org/2000/svg"><g clip-path="url(#a)"><path d="M95.973 127.963 57.4 63.495H27.49v64.468h-3.956V.091h35.33c4.69 0 9.433.422 14.232 1.266 4.799.845 9.103 2.441 12.894 4.79 3.791 2.35 6.887 5.56 9.286 9.653 2.4 4.092 3.608 9.396 3.608 15.892 0 6.02-1.136 11.01-3.425 14.993-2.29 3.964-5.22 7.194-8.828 9.671-3.608 2.46-7.6 4.24-11.978 5.322-4.396 1.083-8.682 1.633-12.894 1.633l38.755 64.652h-4.542Zm-1.08-96.253c0-5.542-1.081-10.148-3.243-13.818-2.16-3.67-5.018-6.551-8.553-8.662-3.553-2.11-7.637-3.578-12.253-4.423a78.682 78.682 0 0 0-14.14-1.266H27.493v56.522h31.172c11.777 0 20.752-2.459 26.942-7.395 6.191-4.937 9.286-11.91 9.286-20.958Z" fill="#fff"/><path d="M84.141 127.963 45.57 63.495H15.66v64.468h-3.955V.091h35.312c4.689 0 9.432.422 14.231 1.266 4.799.845 9.103 2.441 12.894 4.79 3.791 2.35 6.887 5.56 9.286 9.653 2.4 4.092 3.608 9.396 3.608 15.892 0 6.02-1.135 11.01-3.425 14.993-2.29 3.964-5.22 7.194-8.828 9.671-3.608 2.46-7.6 4.24-11.978 5.322-4.396 1.083-8.682 1.633-12.894 1.633l38.755 64.652h-4.524Zm-1.08-96.253c0-5.542-1.081-10.148-3.242-13.818S74.8 11.34 71.266 9.23c-3.554-2.11-7.638-3.578-12.254-4.423a78.682 78.682 0 0 0-14.139-1.266H15.66v56.522h31.173c11.777 0 20.751-2.459 26.942-7.395 6.19-4.937 9.286-11.91 9.286-20.958Z" fill="#fff"/><path d="M72.456 127.963 33.883 63.495H3.956v64.468H0V.11h35.33c4.69 0 9.433.422 14.232 1.266 4.798.844 9.102 2.441 12.894 4.79 3.79 2.349 6.886 5.56 9.285 9.653 2.4 4.092 3.609 9.396 3.609 15.892 0 6.02-1.136 11.01-3.425 14.993-2.29 3.964-5.22 7.194-8.828 9.67-3.608 2.46-7.601 4.24-11.979 5.323-4.395 1.082-8.681 1.633-12.894 1.633l38.756 64.652h-4.506l-.018-.019Zm-1.08-96.252c0-5.542-1.082-10.148-3.243-13.819-2.16-3.67-5.018-6.551-8.553-8.661-3.553-2.11-7.637-3.579-12.253-4.423a78.681 78.681 0 0 0-14.14-1.266H3.957v56.521h31.19c11.777 0 20.752-2.459 26.942-7.395 6.19-4.937 9.286-11.91 9.286-20.957Zm142.273 96.252V63.66H127.86v64.303h-3.956V.11h3.956v59.953h85.789V.11h3.975v127.853h-3.975Z" fill="#fff"/><path d="M201.928 127.945V63.642H116.12v64.303h-3.956V.073h3.956v59.972h85.808V.073h3.956v127.872h-3.956ZM390.888 3.743V128h-3.957V3.743h-43.444V.128h90.845" fill="#fff"/><path d="M402.628 3.706v124.257h-3.956V3.706h-43.444V.091h90.844v3.615h-43.444ZM279.676 71.974v55.989h-3.956v-55.99L231.928.11h4.67l41.283 67.9" fill="#fff"/><path d="M291.252 71.974v55.989h-3.975v-55.99L243.485.11h4.689l41.264 67.9 41.1-67.9h4.506l-43.792 71.864ZM696.718.091v127.853h-3.956V4.606h-.714l-56.43 123.338h-3.242L576.148 4.606h-.531v123.338h-3.975V.091h7.033l55.514 122.073L689.703.091M557.374 60.1V.147h3.975V128h-3.975V63.715m-97.456-.073v64.285h-3.974V.073h3.974v59.954h85.79V.073h3.956v127.854h-3.956V63.642" fill="#fff"/><path d="M706.077 0v127.945" stroke="#fff" stroke-width="5.495" stroke-miterlimit="10"/></g><defs><clipPath id="a"><path fill="#fff" d="M0 0h708.825v128H0z"/></clipPath></defs></svg>