<svg width="50" height="51" viewBox="0 0 50 51" fill="none" xmlns="http://www.w3.org/2000/svg">
<path d="M24.9988 50.5C18.0906 50.5 11.8225 47.7262 7.33576 43.1747C2.77778 38.6932 0 32.4351 0 25.5356C0 18.6372 2.77778 12.378 7.33576 7.82532C11.8225 3.27382 18.0906 0.5 24.9988 0.5C31.9082 0.5 38.1752 3.27382 42.7332 7.82532C47.2211 12.3768 50 18.6372 50 25.5356C50 32.4351 47.2211 38.6932 42.7332 43.1747C38.174 47.7262 31.9071 50.5 24.9988 50.5ZM22.2211 21.7656H18.517V26.3894H22.2211V37.627H26.8515V26.3894H31.4807V21.7656H26.8515V19.4187C26.8515 18.636 27.2778 17.9956 27.7754 17.9956H31.4807V13.4441H27.7754C24.7126 13.4441 22.2211 16.1468 22.2211 19.4899V21.7656Z" fill="white"/>
</svg>
