<svg width="15" height="16" viewBox="0 0 15 16" fill="none" xmlns="http://www.w3.org/2000/svg">
<path d="M2.86979 7.04604C4.00979 9.28646 5.8425 11.1192 8.08687 12.2592L9.82854 10.5135C10.0463 10.2958 10.359 10.2325 10.6321 10.3196C11.5188 10.6125 12.4727 10.7708 13.4583 10.7708C13.8977 10.7708 14.25 11.1231 14.25 11.5625V14.3333C14.25 14.7727 13.8977 15.125 13.4583 15.125C6.02458 15.125 0 9.10042 0 1.66667C0 1.22729 0.35625 0.875 0.791667 0.875H3.5625C4.00187 0.875 4.35417 1.22729 4.35417 1.66667C4.35417 2.65229 4.5125 3.60625 4.80542 4.49292C4.8925 4.76604 4.82917 5.07875 4.61146 5.29646L2.86979 7.04604Z" fill="white"/>
</svg>
