<svg width="50" height="51" viewBox="0 0 50 51" fill="none" xmlns="http://www.w3.org/2000/svg">
<circle cx="25" cy="25.5" r="23.5" fill="white" stroke="white" stroke-width="3"/>
<path d="M35.9828 16.1556L33.1077 34.8033C33.0403 35.2406 32.7763 35.6218 32.3902 35.8388C32.1726 35.9609 31.9289 36.0228 31.6858 36.0228C31.4977 36.0228 31.3121 35.9862 31.1337 35.9118L26.4309 33.9643C26.4309 33.9643 22.5971 32.5531 21.5 32L31.6881 18.8123L18.4941 30.6856L13.8845 28.7629C13.379 28.5517 13.0364 28.0755 13.0027 27.4871C12.969 26.8986 13.2484 26.4215 13.7242 26.1497L33.8499 14.6897C34.3301 14.4153 34.9227 14.4405 35.3773 14.7529C35.8319 15.0652 36.0681 15.6102 35.9828 16.1556Z" fill="#876191"/>
</svg>
